<svg version="1.1" viewBox="0.0 0.0 960.0 540.0" fill="none" stroke="none" stroke-linecap="square" stroke-miterlimit="10" xmlns:xlink="http://www.w3.org/1999/xlink" xmlns="http://www.w3.org/2000/svg"><clipPath id="g29e0fafa150_0_5.0"><path d="m0 0l960.0 0l0 540.0l-960.0 0l0 -540.0z" clip-rule="nonzero"/></clipPath><g clip-path="url(#g29e0fafa150_0_5.0)"><path fill="#ffffff" d="m0 0l960.0 0l0 540.0l-960.0 0z" fill-rule="evenodd"/><path fill="#000000" fill-opacity="0.0" d="m351.86353 175.09186l46.015747 0l0 57.606308l-46.015747 0z" fill-rule="evenodd"/><path fill="#595959" d="m372.05103 192.80374q0 -0.25 -0.09375 -0.375q-0.09375 -0.125 -0.296875 -0.171875q-0.1875 -0.0625 -0.53125 -0.265625q-0.328125 -0.203125 -0.328125 -0.671875q0 -0.9375 0.9375 -0.9375l5.34375 0q0.90625 0 0.90625 0.9375q0 0.75 -0.890625 0.96875l-0.75 0.109375q-1.3125 0.234375 -2.9375 2.453125l-1.796875 2.34375q4.9375 7.609375 5.40625 7.90625q1.265625 0.328125 1.265625 1.078125q0 0.953125 -0.90625 0.953125l-6.890625 0q-0.90625 0 -0.90625 -0.9375q0 -0.953125 0.90625 -0.953125q1.234375 0.171875 1.0625 0.171875q0 -0.640625 -2.296875 -3.90625l-0.09375 -0.125l-2.125 2.40625q-0.375 0.4375 -0.375 0.859375q0 0.265625 0.140625 0.4375q0.140625 0.15625 0.6875 0.15625q0.546875 0 0.546875 0.9375q0 0.953125 -0.90625 0.953125l-4.75 0q-0.890625 0 -0.890625 -0.953125q0 -0.515625 0.3125 -0.6875q0.328125 -0.1875 0.90625 -0.328125q0.53125 -0.140625 2.671875 -2.5625l2.609375 -2.96875l-4.109375 -6.09375q-0.625 -0.90625 -0.84375 -1.046875l-0.671875 -0.21875q-0.78125 -0.296875 -0.78125 -0.953125q0 -0.9375 0.890625 -0.9375l6.671875 0q0.90625 0 0.90625 0.9375q0 0.953125 -0.90625 0.953125q-0.84375 -0.140625 -0.703125 -0.140625q0 0.375 1.984375 3.296875l1.28125 -1.671875q0.34375 -0.484375 0.34375 -0.953125zm1.828125 -0.84375l-0.25 0.0625q0.28125 -0.03125 0.03125 0.09375q0 -0.375 0.21875 -0.15625zm1.75 13.734375q-0.34375 0.28125 -1.796875 -1.84375q-1.4375 -2.125 -2.890625 -4.265625q-1.4375 -2.15625 -1.046875 -2.3125l-2.140625 -2.46875q-1.203125 -1.953125 -1.203125 -2.671875q0 -0.296875 0.390625 -0.234375l-2.140625 0.109375q0.21875 -0.140625 0.703125 0.5625l6.5 9.734375q1.40625 2.25 1.40625 3.109375q0 0.203125 -0.359375 0.1875l2.578125 0.09375zm-10.5625 -0.25q-0.25 0 0.015625 -0.15625q-0.015625 0.421875 -0.21875 0.21875l0.203125 -0.0625z" fill-rule="nonzero"/><path fill="#c9daf8" d="m199.29659 333.0315l0 0c0 -4.8009644 3.8919525 -8.692902 8.692917 -8.692902l0 0c2.3054962 0 4.5165863 0.91586304 6.14682 2.5460815c1.6302338 1.630249 2.5460968 3.8413086 2.5460968 6.14682l0 0c0 4.8009644 -3.8919525 8.692902 -8.692917 8.692902l0 0c-4.8009644 0 -8.692917 -3.8919373 -8.692917 -8.692902z" fill-rule="evenodd"/><path stroke="#595959" stroke-width="1.0" stroke-linejoin="round" stroke-linecap="butt" d="m199.29659 333.0315l0 0c0 -4.8009644 3.8919525 -8.692902 8.692917 -8.692902l0 0c2.3054962 0 4.5165863 0.91586304 6.14682 2.5460815c1.6302338 1.630249 2.5460968 3.8413086 2.5460968 6.14682l0 0c0 4.8009644 -3.8919525 8.692902 -8.692917 8.692902l0 0c-4.8009644 0 -8.692917 -3.8919373 -8.692917 -8.692902z" fill-rule="evenodd"/><path fill="#c9daf8" d="m242.88715 333.0315l0 0c0 -4.8009644 3.8919373 -8.692902 8.692902 -8.692902l0 0c2.3055115 0 4.516571 0.91586304 6.14682 2.5460815c1.630249 1.630249 2.546112 3.8413086 2.546112 6.14682l0 0c0 4.8009644 -3.8919678 8.692902 -8.692932 8.692902l0 0c-4.8009644 0 -8.692902 -3.8919373 -8.692902 -8.692902z" fill-rule="evenodd"/><path stroke="#595959" stroke-width="1.0" stroke-linejoin="round" stroke-linecap="butt" d="m242.88715 333.0315l0 0c0 -4.8009644 3.8919373 -8.692902 8.692902 -8.692902l0 0c2.3055115 0 4.516571 0.91586304 6.14682 2.5460815c1.630249 1.630249 2.546112 3.8413086 2.546112 6.14682l0 0c0 4.8009644 -3.8919678 8.692902 -8.692932 8.692902l0 0c-4.8009644 0 -8.692902 -3.8919373 -8.692902 -8.692902z" fill-rule="evenodd"/><path fill="#c9daf8" d="m221.09186 333.0315l0 0c0 -4.8009644 3.8919525 -8.692902 8.692917 -8.692902l0 0c2.3055115 0 4.5165863 0.91586304 6.14682 2.5460815c1.6302338 1.630249 2.5460968 3.8413086 2.5460968 6.14682l0 0c0 4.8009644 -3.8919525 8.692902 -8.692917 8.692902l0 0c-4.8009644 0 -8.692917 -3.8919373 -8.692917 -8.692902z" fill-rule="evenodd"/><path stroke="#595959" stroke-width="1.0" stroke-linejoin="round" stroke-linecap="butt" d="m221.09186 333.0315l0 0c0 -4.8009644 3.8919525 -8.692902 8.692917 -8.692902l0 0c2.3055115 0 4.5165863 0.91586304 6.14682 2.5460815c1.6302338 1.630249 2.5460968 3.8413086 2.5460968 6.14682l0 0c0 4.8009644 -3.8919525 8.692902 -8.692917 8.692902l0 0c-4.8009644 0 -8.692917 -3.8919373 -8.692917 -8.692902z" fill-rule="evenodd"/><path fill="#c9daf8" d="m264.6824 333.0315l0 0c0 -4.8009644 3.8919678 -8.692902 8.692932 -8.692902l0 0c2.3055115 0 4.516571 0.91586304 6.14682 2.5460815c1.6302185 1.630249 2.5460815 3.8413086 2.5460815 6.14682l0 0c0 4.8009644 -3.8919373 8.692902 -8.692902 8.692902l0 0c-4.8009644 0 -8.692932 -3.8919373 -8.692932 -8.692902z" fill-rule="evenodd"/><path stroke="#595959" stroke-width="1.0" stroke-linejoin="round" stroke-linecap="butt" d="m264.6824 333.0315l0 0c0 -4.8009644 3.8919678 -8.692902 8.692932 -8.692902l0 0c2.3055115 0 4.516571 0.91586304 6.14682 2.5460815c1.6302185 1.630249 2.5460815 3.8413086 2.5460815 6.14682l0 0c0 4.8009644 -3.8919373 8.692902 -8.692902 8.692902l0 0c-4.8009644 0 -8.692932 -3.8919373 -8.692932 -8.692902z" fill-rule="evenodd"/><path fill="#c9daf8" d="m330.06824 282.8058l0 0c0 -4.8009644 3.8919678 -8.692932 8.692932 -8.692932l0 0c2.305481 0 4.516571 0.91586304 6.1467896 2.546112c1.630249 1.6302185 2.546112 3.8413086 2.546112 6.14682l0 0c0 4.8009644 -3.8919678 8.692902 -8.692902 8.692902l0 0c-4.8009644 0 -8.692932 -3.8919373 -8.692932 -8.692902z" fill-rule="evenodd"/><path stroke="#595959" stroke-width="1.0" stroke-linejoin="round" stroke-linecap="butt" d="m330.06824 282.8058l0 0c0 -4.8009644 3.8919678 -8.692932 8.692932 -8.692932l0 0c2.305481 0 4.516571 0.91586304 6.1467896 2.546112c1.630249 1.6302185 2.546112 3.8413086 2.546112 6.14682l0 0c0 4.8009644 -3.8919678 8.692902 -8.692902 8.692902l0 0c-4.8009644 0 -8.692932 -3.8919373 -8.692932 -8.692902z" fill-rule="evenodd"/><path fill="#c9daf8" d="m330.06824 257.6929l0 0c0 -4.800949 3.8919678 -8.692902 8.692932 -8.692902l0 0c2.305481 0 4.516571 0.91586304 6.1467896 2.5460968c1.630249 1.6302338 2.546112 3.8413086 2.546112 6.146805l0 0c0 4.8009644 -3.8919678 8.692932 -8.692902 8.692932l0 0c-4.8009644 0 -8.692932 -3.8919678 -8.692932 -8.692932z" fill-rule="evenodd"/><path stroke="#595959" stroke-width="1.0" stroke-linejoin="round" stroke-linecap="butt" d="m330.06824 257.6929l0 0c0 -4.800949 3.8919678 -8.692902 8.692932 -8.692902l0 0c2.305481 0 4.516571 0.91586304 6.1467896 2.5460968c1.630249 1.6302338 2.546112 3.8413086 2.546112 6.146805l0 0c0 4.8009644 -3.8919678 8.692932 -8.692902 8.692932l0 0c-4.8009644 0 -8.692932 -3.8919678 -8.692932 -8.692932z" fill-rule="evenodd"/><path fill="#c9daf8" d="m330.06824 232.58005l0 0c0 -4.8009644 3.8919678 -8.692902 8.692932 -8.692902l0 0c2.305481 0 4.516571 0.9158478 6.1467896 2.5460815c1.630249 1.630249 2.546112 3.8413239 2.546112 6.14682l0 0c0 4.8009644 -3.8919678 8.692917 -8.692902 8.692917l0 0c-4.8009644 0 -8.692932 -3.8919525 -8.692932 -8.692917z" fill-rule="evenodd"/><path stroke="#595959" stroke-width="1.0" stroke-linejoin="round" stroke-linecap="butt" d="m330.06824 232.58005l0 0c0 -4.8009644 3.8919678 -8.692902 8.692932 -8.692902l0 0c2.305481 0 4.516571 0.9158478 6.1467896 2.5460815c1.630249 1.630249 2.546112 3.8413239 2.546112 6.14682l0 0c0 4.8009644 -3.8919678 8.692917 -8.692902 8.692917l0 0c-4.8009644 0 -8.692932 -3.8919525 -8.692932 -8.692917z" fill-rule="evenodd"/><path fill="#c9daf8" d="m351.86353 299.34384l0 0c0 -4.8009644 3.8919373 -8.692932 8.692902 -8.692932l0 0c2.3055115 0 4.516571 0.91586304 6.14682 2.546112c1.630249 1.6302185 2.5460815 3.8413086 2.5460815 6.14682l0 0c0 4.8009644 -3.8919373 8.692902 -8.692902 8.692902l0 0c-4.8009644 0 -8.692902 -3.8919373 -8.692902 -8.692902z" fill-rule="evenodd"/><path stroke="#595959" stroke-width="1.0" stroke-linejoin="round" stroke-linecap="butt" d="m351.86353 299.34384l0 0c0 -4.8009644 3.8919373 -8.692932 8.692902 -8.692932l0 0c2.3055115 0 4.516571 0.91586304 6.14682 2.546112c1.630249 1.6302185 2.5460815 3.8413086 2.5460815 6.14682l0 0c0 4.8009644 -3.8919373 8.692902 -8.692902 8.692902l0 0c-4.8009644 0 -8.692902 -3.8919373 -8.692902 -8.692902z" fill-rule="evenodd"/><path fill="#c9daf8" d="m351.86353 274.23096l0 0c0 -4.8009644 3.8919373 -8.692902 8.692902 -8.692902l0 0c2.3055115 0 4.516571 0.91586304 6.14682 2.546112c1.630249 1.6302185 2.5460815 3.8413086 2.5460815 6.1467896l0 0c0 4.8009644 -3.8919373 8.692932 -8.692902 8.692932l0 0c-4.8009644 0 -8.692902 -3.8919678 -8.692902 -8.692932z" fill-rule="evenodd"/><path stroke="#595959" stroke-width="1.0" stroke-linejoin="round" stroke-linecap="butt" d="m351.86353 274.23096l0 0c0 -4.8009644 3.8919373 -8.692902 8.692902 -8.692902l0 0c2.3055115 0 4.516571 0.91586304 6.14682 2.546112c1.630249 1.6302185 2.5460815 3.8413086 2.5460815 6.1467896l0 0c0 4.8009644 -3.8919373 8.692932 -8.692902 8.692932l0 0c-4.8009644 0 -8.692902 -3.8919678 -8.692902 -8.692932z" fill-rule="evenodd"/><path fill="#c9daf8" d="m351.86353 249.1181l0 0c0 -4.800949 3.8919373 -8.692902 8.692902 -8.692902l0 0c2.3055115 0 4.516571 0.9158478 6.14682 2.5460968c1.630249 1.6302338 2.5460815 3.8413086 2.5460815 6.146805l0 0c0 4.8009644 -3.8919373 8.692932 -8.692902 8.692932l0 0c-4.8009644 0 -8.692902 -3.8919678 -8.692902 -8.692932z" fill-rule="evenodd"/><path stroke="#595959" stroke-width="1.0" stroke-linejoin="round" stroke-linecap="butt" d="m351.86353 249.1181l0 0c0 -4.800949 3.8919373 -8.692902 8.692902 -8.692902l0 0c2.3055115 0 4.516571 0.9158478 6.14682 2.5460968c1.630249 1.6302338 2.5460815 3.8413086 2.5460815 6.146805l0 0c0 4.8009644 -3.8919373 8.692932 -8.692902 8.692932l0 0c-4.8009644 0 -8.692902 -3.8919678 -8.692902 -8.692932z" fill-rule="evenodd"/><path fill="#c9daf8" d="m373.65878 313.48163l0 0c0 -4.8009644 3.8919678 -8.692902 8.692932 -8.692902l0 0c2.305481 0 4.516571 0.9158325 6.14682 2.5460815c1.6302185 1.630249 2.5460815 3.8413086 2.5460815 6.14682l0 0c0 4.8009644 -3.8919373 8.692902 -8.692902 8.692902l0 0c-4.8009644 0 -8.692932 -3.8919373 -8.692932 -8.692902z" fill-rule="evenodd"/><path stroke="#595959" stroke-width="1.0" stroke-linejoin="round" stroke-linecap="butt" d="m373.65878 313.48163l0 0c0 -4.8009644 3.8919678 -8.692902 8.692932 -8.692902l0 0c2.305481 0 4.516571 0.9158325 6.14682 2.5460815c1.6302185 1.630249 2.5460815 3.8413086 2.5460815 6.14682l0 0c0 4.8009644 -3.8919373 8.692902 -8.692902 8.692902l0 0c-4.8009644 0 -8.692932 -3.8919373 -8.692932 -8.692902z" fill-rule="evenodd"/><path fill="#c9daf8" d="m373.65878 292.91208l0 0c0 -4.8009644 3.8919678 -8.692932 8.692932 -8.692932l0 0c2.305481 0 4.516571 0.91586304 6.14682 2.546112c1.6302185 1.630249 2.5460815 3.8413086 2.5460815 6.14682l0 0c0 4.8009644 -3.8919373 8.692902 -8.692902 8.692902l0 0c-4.8009644 0 -8.692932 -3.8919373 -8.692932 -8.692902z" fill-rule="evenodd"/><path stroke="#595959" stroke-width="1.0" stroke-linejoin="round" stroke-linecap="butt" d="m373.65878 292.91208l0 0c0 -4.8009644 3.8919678 -8.692932 8.692932 -8.692932l0 0c2.305481 0 4.516571 0.91586304 6.14682 2.546112c1.6302185 1.630249 2.5460815 3.8413086 2.5460815 6.14682l0 0c0 4.8009644 -3.8919373 8.692902 -8.692902 8.692902l0 0c-4.8009644 0 -8.692932 -3.8919373 -8.692932 -8.692902z" fill-rule="evenodd"/><path fill="#c9daf8" d="m373.65878 267.79922l0 0c0 -4.8009644 3.8919678 -8.692932 8.692932 -8.692932l0 0c2.305481 0 4.516571 0.91586304 6.14682 2.546112c1.6302185 1.6302185 2.5460815 3.8413086 2.5460815 6.14682l0 0c0 4.8009644 -3.8919373 8.692902 -8.692902 8.692902l0 0c-4.8009644 0 -8.692932 -3.8919373 -8.692932 -8.692902z" fill-rule="evenodd"/><path stroke="#595959" stroke-width="1.0" stroke-linejoin="round" stroke-linecap="butt" d="m373.65878 267.79922l0 0c0 -4.8009644 3.8919678 -8.692932 8.692932 -8.692932l0 0c2.305481 0 4.516571 0.91586304 6.14682 2.546112c1.6302185 1.6302185 2.5460815 3.8413086 2.5460815 6.14682l0 0c0 4.8009644 -3.8919373 8.692902 -8.692902 8.692902l0 0c-4.8009644 0 -8.692932 -3.8919373 -8.692932 -8.692902z" fill-rule="evenodd"/><path fill="#c9daf8" d="m395.45407 304.9265l0 0c0 -4.8009644 3.8919373 -8.692932 8.692902 -8.692932l0 0c2.3055115 0 4.5166016 0.91586304 6.14682 2.546112c1.630249 1.630249 2.546112 3.8413086 2.546112 6.14682l0 0c0 4.8009644 -3.8919678 8.692902 -8.692932 8.692902l0 0c-4.8009644 0 -8.692902 -3.8919373 -8.692902 -8.692902z" fill-rule="evenodd"/><path stroke="#595959" stroke-width="1.0" stroke-linejoin="round" stroke-linecap="butt" d="m395.45407 304.9265l0 0c0 -4.8009644 3.8919373 -8.692932 8.692902 -8.692932l0 0c2.3055115 0 4.5166016 0.91586304 6.14682 2.546112c1.630249 1.630249 2.546112 3.8413086 2.546112 6.14682l0 0c0 4.8009644 -3.8919678 8.692902 -8.692932 8.692902l0 0c-4.8009644 0 -8.692902 -3.8919373 -8.692902 -8.692902z" fill-rule="evenodd"/><path fill="#c9daf8" d="m395.45407 279.81366l0 0c0 -4.8009644 3.8919373 -8.692932 8.692902 -8.692932l0 0c2.3055115 0 4.5166016 0.91586304 6.14682 2.546112c1.630249 1.6302185 2.546112 3.8413086 2.546112 6.14682l0 0c0 4.8009644 -3.8919678 8.692902 -8.692932 8.692902l0 0c-4.8009644 0 -8.692902 -3.8919373 -8.692902 -8.692902z" fill-rule="evenodd"/><path stroke="#595959" stroke-width="1.0" stroke-linejoin="round" stroke-linecap="butt" d="m395.45407 279.81366l0 0c0 -4.8009644 3.8919373 -8.692932 8.692902 -8.692932l0 0c2.3055115 0 4.5166016 0.91586304 6.14682 2.546112c1.630249 1.6302185 2.546112 3.8413086 2.546112 6.14682l0 0c0 4.8009644 -3.8919678 8.692902 -8.692932 8.692902l0 0c-4.8009644 0 -8.692902 -3.8919373 -8.692902 -8.692902z" fill-rule="evenodd"/><path fill="#c9daf8" d="m419.18372 305.7743l0 0c0 -4.8009644 3.8919678 -8.692932 8.692932 -8.692932l0 0c2.3055115 0 4.516571 0.91586304 6.14682 2.546112c1.6302185 1.6302185 2.5460815 3.8413086 2.5460815 6.14682l0 0c0 4.8009644 -3.8919373 8.692902 -8.692902 8.692902l0 0c-4.8009644 0 -8.692932 -3.8919373 -8.692932 -8.692902z" fill-rule="evenodd"/><path stroke="#595959" stroke-width="1.0" stroke-linejoin="round" stroke-linecap="butt" d="m419.18372 305.7743l0 0c0 -4.8009644 3.8919678 -8.692932 8.692932 -8.692932l0 0c2.3055115 0 4.516571 0.91586304 6.14682 2.546112c1.6302185 1.6302185 2.5460815 3.8413086 2.5460815 6.14682l0 0c0 4.8009644 -3.8919373 8.692902 -8.692902 8.692902l0 0c-4.8009644 0 -8.692932 -3.8919373 -8.692932 -8.692902z" fill-rule="evenodd"/><path fill="#c9daf8" d="m419.18372 280.6614l0 0c0 -4.8009644 3.8919678 -8.692902 8.692932 -8.692902l0 0c2.3055115 0 4.516571 0.91586304 6.14682 2.5460815c1.6302185 1.630249 2.5460815 3.841339 2.5460815 6.14682l0 0c0 4.8009644 -3.8919373 8.692932 -8.692902 8.692932l0 0c-4.8009644 0 -8.692932 -3.8919678 -8.692932 -8.692932z" fill-rule="evenodd"/><path stroke="#595959" stroke-width="1.0" stroke-linejoin="round" stroke-linecap="butt" d="m419.18372 280.6614l0 0c0 -4.8009644 3.8919678 -8.692902 8.692932 -8.692902l0 0c2.3055115 0 4.516571 0.91586304 6.14682 2.5460815c1.6302185 1.630249 2.5460815 3.841339 2.5460815 6.14682l0 0c0 4.8009644 -3.8919373 8.692932 -8.692902 8.692932l0 0c-4.8009644 0 -8.692932 -3.8919678 -8.692932 -8.692932z" fill-rule="evenodd"/><path fill="#c9daf8" d="m286.4777 333.0315l0 0c0 -4.8009644 3.8919373 -8.692902 8.692902 -8.692902l0 0c2.3055115 0 4.5166016 0.91586304 6.14682 2.5460815c1.630249 1.630249 2.546112 3.8413086 2.546112 6.14682l0 0c0 4.8009644 -3.8919678 8.692902 -8.692932 8.692902l0 0c-4.8009644 0 -8.692902 -3.8919373 -8.692902 -8.692902z" fill-rule="evenodd"/><path stroke="#595959" stroke-width="1.0" stroke-linejoin="round" stroke-linecap="butt" d="m286.4777 333.0315l0 0c0 -4.8009644 3.8919373 -8.692902 8.692902 -8.692902l0 0c2.3055115 0 4.5166016 0.91586304 6.14682 2.5460815c1.630249 1.630249 2.546112 3.8413086 2.546112 6.14682l0 0c0 4.8009644 -3.8919678 8.692902 -8.692932 8.692902l0 0c-4.8009644 0 -8.692902 -3.8919373 -8.692902 -8.692902z" fill-rule="evenodd"/><path fill="#c9daf8" d="m330.06824 333.0315l0 0c0 -4.8009644 3.8919678 -8.692902 8.692932 -8.692902l0 0c2.305481 0 4.516571 0.91586304 6.1467896 2.5460815c1.630249 1.630249 2.546112 3.8413086 2.546112 6.14682l0 0c0 4.8009644 -3.8919678 8.692902 -8.692902 8.692902l0 0c-4.8009644 0 -8.692932 -3.8919373 -8.692932 -8.692902z" fill-rule="evenodd"/><path stroke="#595959" stroke-width="1.0" stroke-linejoin="round" stroke-linecap="butt" d="m330.06824 333.0315l0 0c0 -4.8009644 3.8919678 -8.692902 8.692932 -8.692902l0 0c2.305481 0 4.516571 0.91586304 6.1467896 2.5460815c1.630249 1.630249 2.546112 3.8413086 2.546112 6.14682l0 0c0 4.8009644 -3.8919678 8.692902 -8.692902 8.692902l0 0c-4.8009644 0 -8.692932 -3.8919373 -8.692932 -8.692902z" fill-rule="evenodd"/><path fill="#c9daf8" d="m308.27298 333.0315l0 0c0 -4.8009644 3.8919373 -8.692902 8.692902 -8.692902l0 0c2.3055115 0 4.516571 0.91586304 6.14682 2.5460815c1.6302185 1.630249 2.5460815 3.8413086 2.5460815 6.14682l0 0c0 4.8009644 -3.8919373 8.692902 -8.692902 8.692902l0 0c-4.8009644 0 -8.692902 -3.8919373 -8.692902 -8.692902z" fill-rule="evenodd"/><path stroke="#595959" stroke-width="1.0" stroke-linejoin="round" stroke-linecap="butt" d="m308.27298 333.0315l0 0c0 -4.8009644 3.8919373 -8.692902 8.692902 -8.692902l0 0c2.3055115 0 4.516571 0.91586304 6.14682 2.5460815c1.6302185 1.630249 2.5460815 3.8413086 2.5460815 6.14682l0 0c0 4.8009644 -3.8919373 8.692902 -8.692902 8.692902l0 0c-4.8009644 0 -8.692902 -3.8919373 -8.692902 -8.692902z" fill-rule="evenodd"/><path fill="#c9daf8" d="m351.86353 324.4567l0 0c0 -4.8009644 3.8919373 -8.692902 8.692902 -8.692902l0 0c2.3055115 0 4.516571 0.9158325 6.14682 2.5460815c1.630249 1.630249 2.5460815 3.8413086 2.5460815 6.14682l0 0c0 4.8009644 -3.8919373 8.692902 -8.692902 8.692902l0 0c-4.8009644 0 -8.692902 -3.8919373 -8.692902 -8.692902z" fill-rule="evenodd"/><path stroke="#595959" stroke-width="1.0" stroke-linejoin="round" stroke-linecap="butt" d="m351.86353 324.4567l0 0c0 -4.8009644 3.8919373 -8.692902 8.692902 -8.692902l0 0c2.3055115 0 4.516571 0.9158325 6.14682 2.5460815c1.630249 1.630249 2.5460815 3.8413086 2.5460815 6.14682l0 0c0 4.8009644 -3.8919373 8.692902 -8.692902 8.692902l0 0c-4.8009644 0 -8.692902 -3.8919373 -8.692902 -8.692902z" fill-rule="evenodd"/><path fill="#c9daf8" d="m308.27298 310.81628l0 0c0 -4.8009644 3.8919373 -8.692932 8.692902 -8.692932l0 0c2.3055115 0 4.516571 0.91586304 6.14682 2.546112c1.6302185 1.6302185 2.5460815 3.8413086 2.5460815 6.14682l0 0c0 4.8009644 -3.8919373 8.692902 -8.692902 8.692902l0 0c-4.8009644 0 -8.692902 -3.8919373 -8.692902 -8.692902z" fill-rule="evenodd"/><path stroke="#595959" stroke-width="1.0" stroke-linejoin="round" stroke-linecap="butt" d="m308.27298 310.81628l0 0c0 -4.8009644 3.8919373 -8.692932 8.692902 -8.692932l0 0c2.3055115 0 4.516571 0.91586304 6.14682 2.546112c1.6302185 1.6302185 2.5460815 3.8413086 2.5460815 6.14682l0 0c0 4.8009644 -3.8919373 8.692902 -8.692902 8.692902l0 0c-4.8009644 0 -8.692902 -3.8919373 -8.692902 -8.692902z" fill-rule="evenodd"/><path fill="#c9daf8" d="m330.06824 307.91864l0 0c0 -4.8009644 3.8919678 -8.692932 8.692932 -8.692932l0 0c2.305481 0 4.516571 0.91586304 6.1467896 2.546112c1.630249 1.630249 2.546112 3.8413086 2.546112 6.14682l0 0c0 4.8009644 -3.8919678 8.692902 -8.692902 8.692902l0 0c-4.8009644 0 -8.692932 -3.8919373 -8.692932 -8.692902z" fill-rule="evenodd"/><path stroke="#595959" stroke-width="1.0" stroke-linejoin="round" stroke-linecap="butt" d="m330.06824 307.91864l0 0c0 -4.8009644 3.8919678 -8.692932 8.692932 -8.692932l0 0c2.305481 0 4.516571 0.91586304 6.1467896 2.546112c1.630249 1.630249 2.546112 3.8413086 2.546112 6.14682l0 0c0 4.8009644 -3.8919678 8.692902 -8.692902 8.692902l0 0c-4.8009644 0 -8.692932 -3.8919373 -8.692932 -8.692902z" fill-rule="evenodd"/><path fill="#c9daf8" d="m194.04462 356.2126l0 0c0 -4.8009644 3.8919525 -8.692902 8.692917 -8.692902l0 0c2.3054962 0 4.5165863 0.91586304 6.14682 2.5460815c1.6302338 1.630249 2.5460968 3.841339 2.5460968 6.14682l0 0c0 4.8009644 -3.8919525 8.692932 -8.692917 8.692932l0 0c-4.8009644 0 -8.692917 -3.8919678 -8.692917 -8.692932z" fill-rule="evenodd"/><path stroke="#595959" stroke-width="1.0" stroke-linejoin="round" stroke-linecap="butt" d="m194.04462 356.2126l0 0c0 -4.8009644 3.8919525 -8.692902 8.692917 -8.692902l0 0c2.3054962 0 4.5165863 0.91586304 6.14682 2.5460815c1.6302338 1.630249 2.5460968 3.841339 2.5460968 6.14682l0 0c0 4.8009644 -3.8919525 8.692932 -8.692917 8.692932l0 0c-4.8009644 0 -8.692917 -3.8919678 -8.692917 -8.692932z" fill-rule="evenodd"/><path fill="#c9daf8" d="m237.63518 356.2126l0 0c0 -4.8009644 3.8919373 -8.692902 8.692902 -8.692902l0 0c2.3055115 0 4.5165863 0.91586304 6.14682 2.5460815c1.6302338 1.630249 2.5460968 3.841339 2.5460968 6.14682l0 0c0 4.8009644 -3.8919525 8.692932 -8.692917 8.692932l0 0c-4.8009644 0 -8.692902 -3.8919678 -8.692902 -8.692932z" fill-rule="evenodd"/><path stroke="#595959" stroke-width="1.0" stroke-linejoin="round" stroke-linecap="butt" d="m237.63518 356.2126l0 0c0 -4.8009644 3.8919373 -8.692902 8.692902 -8.692902l0 0c2.3055115 0 4.5165863 0.91586304 6.14682 2.5460815c1.6302338 1.630249 2.5460968 3.841339 2.5460968 6.14682l0 0c0 4.8009644 -3.8919525 8.692932 -8.692917 8.692932l0 0c-4.8009644 0 -8.692902 -3.8919678 -8.692902 -8.692932z" fill-rule="evenodd"/><path fill="#c9daf8" d="m215.83989 356.2126l0 0c0 -4.8009644 3.8919525 -8.692902 8.692917 -8.692902l0 0c2.3055115 0 4.5165863 0.91586304 6.14682 2.5460815c1.6302338 1.630249 2.5460968 3.841339 2.5460968 6.14682l0 0c0 4.8009644 -3.8919525 8.692932 -8.692917 8.692932l0 0c-4.8009644 0 -8.692917 -3.8919678 -8.692917 -8.692932z" fill-rule="evenodd"/><path stroke="#595959" stroke-width="1.0" stroke-linejoin="round" stroke-linecap="butt" d="m215.83989 356.2126l0 0c0 -4.8009644 3.8919525 -8.692902 8.692917 -8.692902l0 0c2.3055115 0 4.5165863 0.91586304 6.14682 2.5460815c1.6302338 1.630249 2.5460968 3.841339 2.5460968 6.14682l0 0c0 4.8009644 -3.8919525 8.692932 -8.692917 8.692932l0 0c-4.8009644 0 -8.692917 -3.8919678 -8.692917 -8.692932z" fill-rule="evenodd"/><path fill="#c9daf8" d="m259.43045 356.2126l0 0c0 -4.8009644 3.8919373 -8.692902 8.692902 -8.692902l0 0c2.3055115 0 4.5166016 0.91586304 6.14682 2.5460815c1.630249 1.630249 2.546112 3.841339 2.546112 6.14682l0 0c0 4.8009644 -3.8919678 8.692932 -8.692932 8.692932l0 0c-4.8009644 0 -8.692902 -3.8919678 -8.692902 -8.692932z" fill-rule="evenodd"/><path stroke="#595959" stroke-width="1.0" stroke-linejoin="round" stroke-linecap="butt" d="m259.43045 356.2126l0 0c0 -4.8009644 3.8919373 -8.692902 8.692902 -8.692902l0 0c2.3055115 0 4.5166016 0.91586304 6.14682 2.5460815c1.630249 1.630249 2.546112 3.841339 2.546112 6.14682l0 0c0 4.8009644 -3.8919678 8.692932 -8.692932 8.692932l0 0c-4.8009644 0 -8.692902 -3.8919678 -8.692902 -8.692932z" fill-rule="evenodd"/><path fill="#c9daf8" d="m281.2257 356.2126l0 0c0 -4.8009644 3.8919678 -8.692902 8.692932 -8.692902l0 0c2.3055115 0 4.516571 0.91586304 6.14682 2.5460815c1.6302185 1.630249 2.5460815 3.841339 2.5460815 6.14682l0 0c0 4.8009644 -3.8919373 8.692932 -8.692902 8.692932l0 0c-4.8009644 0 -8.692932 -3.8919678 -8.692932 -8.692932z" fill-rule="evenodd"/><path stroke="#595959" stroke-width="1.0" stroke-linejoin="round" stroke-linecap="butt" d="m281.2257 356.2126l0 0c0 -4.8009644 3.8919678 -8.692902 8.692932 -8.692902l0 0c2.3055115 0 4.516571 0.91586304 6.14682 2.5460815c1.6302185 1.630249 2.5460815 3.841339 2.5460815 6.14682l0 0c0 4.8009644 -3.8919373 8.692932 -8.692902 8.692932l0 0c-4.8009644 0 -8.692932 -3.8919678 -8.692932 -8.692932z" fill-rule="evenodd"/><path fill="#c9daf8" d="m311.021 356.2126l0 0c0 -4.8009644 3.8919373 -8.692902 8.692902 -8.692902l0 0c2.3055115 0 4.5166016 0.91586304 6.14682 2.5460815c1.630249 1.630249 2.546112 3.841339 2.546112 6.14682l0 0c0 4.8009644 -3.8919678 8.692932 -8.692932 8.692932l0 0c-4.8009644 0 -8.692902 -3.8919678 -8.692902 -8.692932z" fill-rule="evenodd"/><path stroke="#595959" stroke-width="1.0" stroke-linejoin="round" stroke-linecap="butt" d="m311.021 356.2126l0 0c0 -4.8009644 3.8919373 -8.692902 8.692902 -8.692902l0 0c2.3055115 0 4.5166016 0.91586304 6.14682 2.5460815c1.630249 1.630249 2.546112 3.841339 2.546112 6.14682l0 0c0 4.8009644 -3.8919678 8.692932 -8.692932 8.692932l0 0c-4.8009644 0 -8.692902 -3.8919678 -8.692902 -8.692932z" fill-rule="evenodd"/><path fill="#c9daf8" d="m221.09186 307.91864l0 0c0 -4.8009644 3.8919525 -8.692932 8.692917 -8.692932l0 0c2.3055115 0 4.5165863 0.91586304 6.14682 2.546112c1.6302338 1.630249 2.5460968 3.8413086 2.5460968 6.14682l0 0c0 4.8009644 -3.8919525 8.692902 -8.692917 8.692902l0 0c-4.8009644 0 -8.692917 -3.8919373 -8.692917 -8.692902z" fill-rule="evenodd"/><path stroke="#595959" stroke-width="1.0" stroke-linejoin="round" stroke-linecap="butt" d="m221.09186 307.91864l0 0c0 -4.8009644 3.8919525 -8.692932 8.692917 -8.692932l0 0c2.3055115 0 4.5165863 0.91586304 6.14682 2.546112c1.6302338 1.630249 2.5460968 3.8413086 2.5460968 6.14682l0 0c0 4.8009644 -3.8919525 8.692902 -8.692917 8.692902l0 0c-4.8009644 0 -8.692917 -3.8919373 -8.692917 -8.692902z" fill-rule="evenodd"/><path fill="#c9daf8" d="m242.88715 307.91864l0 0c0 -4.8009644 3.8919373 -8.692932 8.692902 -8.692932l0 0c2.3055115 0 4.516571 0.91586304 6.14682 2.546112c1.630249 1.630249 2.546112 3.8413086 2.546112 6.14682l0 0c0 4.8009644 -3.8919678 8.692902 -8.692932 8.692902l0 0c-4.8009644 0 -8.692902 -3.8919373 -8.692902 -8.692902z" fill-rule="evenodd"/><path stroke="#595959" stroke-width="1.0" stroke-linejoin="round" stroke-linecap="butt" d="m242.88715 307.91864l0 0c0 -4.8009644 3.8919373 -8.692932 8.692902 -8.692932l0 0c2.3055115 0 4.516571 0.91586304 6.14682 2.546112c1.630249 1.630249 2.546112 3.8413086 2.546112 6.14682l0 0c0 4.8009644 -3.8919678 8.692902 -8.692932 8.692902l0 0c-4.8009644 0 -8.692902 -3.8919373 -8.692902 -8.692902z" fill-rule="evenodd"/><path fill="#c9daf8" d="m242.88715 282.8058l0 0c0 -4.8009644 3.8919373 -8.692932 8.692902 -8.692932l0 0c2.3055115 0 4.516571 0.91586304 6.14682 2.546112c1.630249 1.6302185 2.546112 3.8413086 2.546112 6.14682l0 0c0 4.8009644 -3.8919678 8.692902 -8.692932 8.692902l0 0c-4.8009644 0 -8.692902 -3.8919373 -8.692902 -8.692902z" fill-rule="evenodd"/><path stroke="#595959" stroke-width="1.0" stroke-linejoin="round" stroke-linecap="butt" d="m242.88715 282.8058l0 0c0 -4.8009644 3.8919373 -8.692932 8.692902 -8.692932l0 0c2.3055115 0 4.516571 0.91586304 6.14682 2.546112c1.630249 1.6302185 2.546112 3.8413086 2.546112 6.14682l0 0c0 4.8009644 -3.8919678 8.692902 -8.692932 8.692902l0 0c-4.8009644 0 -8.692902 -3.8919373 -8.692902 -8.692902z" fill-rule="evenodd"/><path fill="#c9daf8" d="m264.6824 307.91864l0 0c0 -4.8009644 3.8919678 -8.692932 8.692932 -8.692932l0 0c2.3055115 0 4.516571 0.91586304 6.14682 2.546112c1.6302185 1.630249 2.5460815 3.8413086 2.5460815 6.14682l0 0c0 4.8009644 -3.8919373 8.692902 -8.692902 8.692902l0 0c-4.8009644 0 -8.692932 -3.8919373 -8.692932 -8.692902z" fill-rule="evenodd"/><path stroke="#595959" stroke-width="1.0" stroke-linejoin="round" stroke-linecap="butt" d="m264.6824 307.91864l0 0c0 -4.8009644 3.8919678 -8.692932 8.692932 -8.692932l0 0c2.3055115 0 4.516571 0.91586304 6.14682 2.546112c1.6302185 1.630249 2.5460815 3.8413086 2.5460815 6.14682l0 0c0 4.8009644 -3.8919373 8.692902 -8.692902 8.692902l0 0c-4.8009644 0 -8.692932 -3.8919373 -8.692932 -8.692902z" fill-rule="evenodd"/><path fill="#c9daf8" d="m264.6824 282.8058l0 0c0 -4.8009644 3.8919678 -8.692932 8.692932 -8.692932l0 0c2.3055115 0 4.516571 0.91586304 6.14682 2.546112c1.6302185 1.6302185 2.5460815 3.8413086 2.5460815 6.14682l0 0c0 4.8009644 -3.8919373 8.692902 -8.692902 8.692902l0 0c-4.8009644 0 -8.692932 -3.8919373 -8.692932 -8.692902z" fill-rule="evenodd"/><path stroke="#595959" stroke-width="1.0" stroke-linejoin="round" stroke-linecap="butt" d="m264.6824 282.8058l0 0c0 -4.8009644 3.8919678 -8.692932 8.692932 -8.692932l0 0c2.3055115 0 4.516571 0.91586304 6.14682 2.546112c1.6302185 1.6302185 2.5460815 3.8413086 2.5460815 6.14682l0 0c0 4.8009644 -3.8919373 8.692902 -8.692902 8.692902l0 0c-4.8009644 0 -8.692932 -3.8919373 -8.692932 -8.692902z" fill-rule="evenodd"/><path fill="#c9daf8" d="m275.58005 266.04462l0 0c0 -4.8009644 3.8919678 -8.692902 8.692932 -8.692902l0 0c2.305481 0 4.516571 0.91586304 6.1467896 2.5460815c1.630249 1.630249 2.546112 3.8413086 2.546112 6.14682l0 0c0 4.8009644 -3.8919373 8.692902 -8.692902 8.692902l0 0c-4.8009644 0 -8.692932 -3.8919373 -8.692932 -8.692902z" fill-rule="evenodd"/><path stroke="#595959" stroke-width="1.0" stroke-linejoin="round" stroke-linecap="butt" d="m275.58005 266.04462l0 0c0 -4.8009644 3.8919678 -8.692902 8.692932 -8.692902l0 0c2.305481 0 4.516571 0.91586304 6.1467896 2.5460815c1.630249 1.630249 2.546112 3.8413086 2.546112 6.14682l0 0c0 4.8009644 -3.8919373 8.692902 -8.692902 8.692902l0 0c-4.8009644 0 -8.692932 -3.8919373 -8.692932 -8.692902z" fill-rule="evenodd"/><path fill="#c9daf8" d="m308.27298 288.60104l0 0c0 -4.8009644 3.8919373 -8.692902 8.692902 -8.692902l0 0c2.3055115 0 4.516571 0.91586304 6.14682 2.5460815c1.6302185 1.630249 2.5460815 3.8413086 2.5460815 6.14682l0 0c0 4.8009644 -3.8919373 8.692932 -8.692902 8.692932l0 0c-4.8009644 0 -8.692902 -3.8919678 -8.692902 -8.692932z" fill-rule="evenodd"/><path stroke="#595959" stroke-width="1.0" stroke-linejoin="round" stroke-linecap="butt" d="m308.27298 288.60104l0 0c0 -4.8009644 3.8919373 -8.692902 8.692902 -8.692902l0 0c2.3055115 0 4.516571 0.91586304 6.14682 2.5460815c1.6302185 1.630249 2.5460815 3.8413086 2.5460815 6.14682l0 0c0 4.8009644 -3.8919373 8.692932 -8.692902 8.692932l0 0c-4.8009644 0 -8.692902 -3.8919678 -8.692902 -8.692932z" fill-rule="evenodd"/><path fill="#c9daf8" d="m308.27298 265.41995l0 0c0 -4.8009644 3.8919373 -8.692932 8.692902 -8.692932l0 0c2.3055115 0 4.516571 0.91586304 6.14682 2.546112c1.6302185 1.630249 2.5460815 3.8413086 2.5460815 6.14682l0 0c0 4.8009644 -3.8919373 8.692902 -8.692902 8.692902l0 0c-4.8009644 0 -8.692902 -3.8919373 -8.692902 -8.692902z" fill-rule="evenodd"/><path stroke="#595959" stroke-width="1.0" stroke-linejoin="round" stroke-linecap="butt" d="m308.27298 265.41995l0 0c0 -4.8009644 3.8919373 -8.692932 8.692902 -8.692932l0 0c2.3055115 0 4.516571 0.91586304 6.14682 2.546112c1.6302185 1.630249 2.5460815 3.8413086 2.5460815 6.14682l0 0c0 4.8009644 -3.8919373 8.692902 -8.692902 8.692902l0 0c-4.8009644 0 -8.692902 -3.8919373 -8.692902 -8.692902z" fill-rule="evenodd"/><path fill="#c9daf8" d="m308.27298 240.30708l0 0c0 -4.8009644 3.8919373 -8.692917 8.692902 -8.692917l0 0c2.3055115 0 4.516571 0.91586304 6.14682 2.5460968c1.6302185 1.630249 2.5460815 3.8413239 2.5460815 6.14682l0 0c0 4.8009644 -3.8919373 8.692917 -8.692902 8.692917l0 0c-4.8009644 0 -8.692902 -3.8919525 -8.692902 -8.692917z" fill-rule="evenodd"/><path stroke="#595959" stroke-width="1.0" stroke-linejoin="round" stroke-linecap="butt" d="m308.27298 240.30708l0 0c0 -4.8009644 3.8919373 -8.692917 8.692902 -8.692917l0 0c2.3055115 0 4.516571 0.91586304 6.14682 2.5460968c1.6302185 1.630249 2.5460815 3.8413239 2.5460815 6.14682l0 0c0 4.8009644 -3.8919373 8.692917 -8.692902 8.692917l0 0c-4.8009644 0 -8.692902 -3.8919525 -8.692902 -8.692917z" fill-rule="evenodd"/><path fill="#c9daf8" d="m255.021 262.48557l0 0c0 -4.8009644 3.8919373 -8.692917 8.692902 -8.692917l0 0c2.3055115 0 4.5166016 0.91586304 6.14682 2.5460968c1.630249 1.630249 2.546112 3.8413086 2.546112 6.14682l0 0c0 4.8009644 -3.8919678 8.692902 -8.692932 8.692902l0 0c-4.8009644 0 -8.692902 -3.8919373 -8.692902 -8.692902z" fill-rule="evenodd"/><path stroke="#595959" stroke-width="1.0" stroke-linejoin="round" stroke-linecap="butt" d="m255.021 262.48557l0 0c0 -4.8009644 3.8919373 -8.692917 8.692902 -8.692917l0 0c2.3055115 0 4.5166016 0.91586304 6.14682 2.5460968c1.630249 1.630249 2.546112 3.8413086 2.546112 6.14682l0 0c0 4.8009644 -3.8919678 8.692902 -8.692932 8.692902l0 0c-4.8009644 0 -8.692902 -3.8919373 -8.692902 -8.692902z" fill-rule="evenodd"/><path fill="#c9daf8" d="m286.4777 283.6614l0 0c0 -4.8009644 3.8919373 -8.692902 8.692902 -8.692902l0 0c2.3055115 0 4.5166016 0.91586304 6.14682 2.5460815c1.630249 1.630249 2.546112 3.841339 2.546112 6.14682l0 0c0 4.8009644 -3.8919678 8.692932 -8.692932 8.692932l0 0c-4.8009644 0 -8.692902 -3.8919678 -8.692902 -8.692932z" fill-rule="evenodd"/><path stroke="#595959" stroke-width="1.0" stroke-linejoin="round" stroke-linecap="butt" d="m286.4777 283.6614l0 0c0 -4.8009644 3.8919373 -8.692902 8.692902 -8.692902l0 0c2.3055115 0 4.5166016 0.91586304 6.14682 2.5460815c1.630249 1.630249 2.546112 3.841339 2.546112 6.14682l0 0c0 4.8009644 -3.8919678 8.692932 -8.692932 8.692932l0 0c-4.8009644 0 -8.692902 -3.8919678 -8.692902 -8.692932z" fill-rule="evenodd"/><path fill="#c9daf8" d="m286.4777 249.1181l0 0c0 -4.800949 3.8919373 -8.692902 8.692902 -8.692902l0 0c2.3055115 0 4.5166016 0.9158478 6.14682 2.5460968c1.630249 1.6302338 2.546112 3.8413086 2.546112 6.146805l0 0c0 4.8009644 -3.8919678 8.692932 -8.692932 8.692932l0 0c-4.8009644 0 -8.692902 -3.8919678 -8.692902 -8.692932z" fill-rule="evenodd"/><path stroke="#595959" stroke-width="1.0" stroke-linejoin="round" stroke-linecap="butt" d="m286.4777 249.1181l0 0c0 -4.800949 3.8919373 -8.692902 8.692902 -8.692902l0 0c2.3055115 0 4.5166016 0.9158478 6.14682 2.5460968c1.630249 1.6302338 2.546112 3.8413086 2.546112 6.146805l0 0c0 4.8009644 -3.8919678 8.692932 -8.692932 8.692932l0 0c-4.8009644 0 -8.692902 -3.8919678 -8.692902 -8.692932z" fill-rule="evenodd"/><path fill="#c9daf8" d="m286.4777 303.63123l0 0c0 -4.8009644 3.8919373 -8.692902 8.692902 -8.692902l0 0c2.3055115 0 4.5166016 0.91586304 6.14682 2.5460815c1.630249 1.630249 2.546112 3.841339 2.546112 6.14682l0 0c0 4.8009644 -3.8919678 8.692932 -8.692932 8.692932l0 0c-4.8009644 0 -8.692902 -3.8919678 -8.692902 -8.692932z" fill-rule="evenodd"/><path stroke="#595959" stroke-width="1.0" stroke-linejoin="round" stroke-linecap="butt" d="m286.4777 303.63123l0 0c0 -4.8009644 3.8919373 -8.692902 8.692902 -8.692902l0 0c2.3055115 0 4.5166016 0.91586304 6.14682 2.5460815c1.630249 1.630249 2.546112 3.841339 2.546112 6.14682l0 0c0 4.8009644 -3.8919678 8.692932 -8.692932 8.692932l0 0c-4.8009644 0 -8.692902 -3.8919678 -8.692902 -8.692932z" fill-rule="evenodd"/><path fill="#c9daf8" d="m528.68243 332.8084l0 0c0 -4.8009644 3.8919067 -8.692932 8.692871 -8.692932l0 0c2.305542 0 4.5166016 0.91586304 6.1468506 2.546112c1.630249 1.6302185 2.5460815 3.8413086 2.5460815 6.14682l0 0c0 4.8009644 -3.8919678 8.692902 -8.692932 8.692902l0 0c-4.8009644 0 -8.692871 -3.8919373 -8.692871 -8.692902z" fill-rule="evenodd"/><path stroke="#595959" stroke-width="3.0" stroke-linejoin="round" stroke-linecap="butt" d="m528.68243 332.8084l0 0c0 -4.8009644 3.8919067 -8.692932 8.692871 -8.692932l0 0c2.305542 0 4.5166016 0.91586304 6.1468506 2.546112c1.630249 1.6302185 2.5460815 3.8413086 2.5460815 6.14682l0 0c0 4.8009644 -3.8919678 8.692902 -8.692932 8.692902l0 0c-4.8009644 0 -8.692871 -3.8919373 -8.692871 -8.692902z" fill-rule="evenodd"/><path fill="#c9daf8" d="m659.45404 232.35695l0 0c0 -4.8009644 3.8919678 -8.692902 8.692932 -8.692902l0 0c2.305542 0 4.5166016 0.9158478 6.1468506 2.5460968c1.630188 1.6302338 2.5460815 3.8413086 2.5460815 6.146805l0 0c0 4.8009644 -3.8919678 8.692917 -8.692932 8.692917l0 0c-4.8009644 0 -8.692932 -3.8919525 -8.692932 -8.692917z" fill-rule="evenodd"/><path stroke="#595959" stroke-width="3.0" stroke-linejoin="round" stroke-linecap="butt" d="m659.45404 232.35695l0 0c0 -4.8009644 3.8919678 -8.692902 8.692932 -8.692902l0 0c2.305542 0 4.5166016 0.9158478 6.1468506 2.5460968c1.630188 1.6302338 2.5460815 3.8413086 2.5460815 6.146805l0 0c0 4.8009644 -3.8919678 8.692917 -8.692932 8.692917l0 0c-4.8009644 0 -8.692932 -3.8919525 -8.692932 -8.692917z" fill-rule="evenodd"/><path fill="#c9daf8" d="m681.2493 248.89502l0 0c0 -4.8009644 3.8919678 -8.692917 8.692932 -8.692917l0 0c2.305481 0 4.5166016 0.9158478 6.1467896 2.5460968c1.630249 1.6302338 2.5461426 3.8413086 2.5461426 6.14682l0 0c0 4.8009644 -3.8919678 8.692902 -8.692932 8.692902l0 0c-4.8009644 0 -8.692932 -3.8919373 -8.692932 -8.692902z" fill-rule="evenodd"/><path stroke="#595959" stroke-width="3.0" stroke-linejoin="round" stroke-linecap="butt" d="m681.2493 248.89502l0 0c0 -4.8009644 3.8919678 -8.692917 8.692932 -8.692917l0 0c2.305481 0 4.5166016 0.9158478 6.1467896 2.5460968c1.630249 1.6302338 2.5461426 3.8413086 2.5461426 6.14682l0 0c0 4.8009644 -3.8919678 8.692902 -8.692932 8.692902l0 0c-4.8009644 0 -8.692932 -3.8919373 -8.692932 -8.692902z" fill-rule="evenodd"/><path fill="#c9daf8" d="m703.0446 313.25854l0 0c0 -4.8009644 3.8919678 -8.692932 8.692932 -8.692932l0 0c2.305481 0 4.5165405 0.91586304 6.1467896 2.546112c1.630249 1.6302185 2.5460815 3.8413086 2.5460815 6.14682l0 0c0 4.800934 -3.8919067 8.692902 -8.692871 8.692902l0 0c-4.8009644 0 -8.692932 -3.8919678 -8.692932 -8.692902z" fill-rule="evenodd"/><path stroke="#595959" stroke-width="3.0" stroke-linejoin="round" stroke-linecap="butt" d="m703.0446 313.25854l0 0c0 -4.8009644 3.8919678 -8.692932 8.692932 -8.692932l0 0c2.305481 0 4.5165405 0.91586304 6.1467896 2.546112c1.630249 1.6302185 2.5460815 3.8413086 2.5460815 6.14682l0 0c0 4.800934 -3.8919067 8.692902 -8.692871 8.692902l0 0c-4.8009644 0 -8.692932 -3.8919678 -8.692932 -8.692902z" fill-rule="evenodd"/><path fill="#c9daf8" d="m703.0446 267.5761l0 0c0 -4.8009644 3.8919678 -8.692902 8.692932 -8.692902l0 0c2.305481 0 4.5165405 0.91586304 6.1467896 2.5460815c1.630249 1.630249 2.5460815 3.8413086 2.5460815 6.14682l0 0c0 4.8009644 -3.8919067 8.692932 -8.692871 8.692932l0 0c-4.8009644 0 -8.692932 -3.8919678 -8.692932 -8.692932z" fill-rule="evenodd"/><path stroke="#595959" stroke-width="3.0" stroke-linejoin="round" stroke-linecap="butt" d="m703.0446 267.5761l0 0c0 -4.8009644 3.8919678 -8.692902 8.692932 -8.692902l0 0c2.305481 0 4.5165405 0.91586304 6.1467896 2.5460815c1.630249 1.630249 2.5460815 3.8413086 2.5460815 6.14682l0 0c0 4.8009644 -3.8919067 8.692932 -8.692871 8.692932l0 0c-4.8009644 0 -8.692932 -3.8919678 -8.692932 -8.692932z" fill-rule="evenodd"/><path fill="#c9daf8" d="m724.8399 304.7034l0 0c0 -4.8009644 3.8919678 -8.692902 8.692932 -8.692902l0 0c2.305481 0 4.5165405 0.91586304 6.1467896 2.5460815c1.630249 1.630249 2.5460815 3.841339 2.5460815 6.14682l0 0c0 4.8009644 -3.8919067 8.692932 -8.692871 8.692932l0 0c-4.8009644 0 -8.692932 -3.8919678 -8.692932 -8.692932z" fill-rule="evenodd"/><path stroke="#595959" stroke-width="3.0" stroke-linejoin="round" stroke-linecap="butt" d="m724.8399 304.7034l0 0c0 -4.8009644 3.8919678 -8.692902 8.692932 -8.692902l0 0c2.305481 0 4.5165405 0.91586304 6.1467896 2.5460815c1.630249 1.630249 2.5460815 3.841339 2.5460815 6.14682l0 0c0 4.8009644 -3.8919067 8.692932 -8.692871 8.692932l0 0c-4.8009644 0 -8.692932 -3.8919678 -8.692932 -8.692932z" fill-rule="evenodd"/><path fill="#c9daf8" d="m724.8399 279.59055l0 0c0 -4.8009644 3.8919678 -8.692902 8.692932 -8.692902l0 0c2.305481 0 4.5165405 0.91586304 6.1467896 2.5460815c1.630249 1.630249 2.5460815 3.8413086 2.5460815 6.14682l0 0c0 4.8009644 -3.8919067 8.692932 -8.692871 8.692932l0 0c-4.8009644 0 -8.692932 -3.8919678 -8.692932 -8.692932z" fill-rule="evenodd"/><path stroke="#595959" stroke-width="3.0" stroke-linejoin="round" stroke-linecap="butt" d="m724.8399 279.59055l0 0c0 -4.8009644 3.8919678 -8.692902 8.692932 -8.692902l0 0c2.305481 0 4.5165405 0.91586304 6.1467896 2.5460815c1.630249 1.630249 2.5460815 3.8413086 2.5460815 6.14682l0 0c0 4.8009644 -3.8919067 8.692932 -8.692871 8.692932l0 0c-4.8009644 0 -8.692932 -3.8919678 -8.692932 -8.692932z" fill-rule="evenodd"/><path fill="#c9daf8" d="m748.5696 305.55118l0 0c0 -4.8009644 3.8919067 -8.692902 8.692871 -8.692902l0 0c2.305542 0 4.5166016 0.91586304 6.1468506 2.5460815c1.630249 1.630249 2.5460815 3.8413086 2.5460815 6.14682l0 0c0 4.8009644 -3.8919678 8.692902 -8.692932 8.692902l0 0c-4.8009644 0 -8.692871 -3.8919373 -8.692871 -8.692902z" fill-rule="evenodd"/><path stroke="#595959" stroke-width="3.0" stroke-linejoin="round" stroke-linecap="butt" d="m748.5696 305.55118l0 0c0 -4.8009644 3.8919067 -8.692902 8.692871 -8.692902l0 0c2.305542 0 4.5166016 0.91586304 6.1468506 2.5460815c1.630249 1.630249 2.5460815 3.8413086 2.5460815 6.14682l0 0c0 4.8009644 -3.8919678 8.692902 -8.692932 8.692902l0 0c-4.8009644 0 -8.692871 -3.8919373 -8.692871 -8.692902z" fill-rule="evenodd"/><path fill="#c9daf8" d="m748.5696 280.43832l0 0c0 -4.8009644 3.8919067 -8.692932 8.692871 -8.692932l0 0c2.305542 0 4.5166016 0.91586304 6.1468506 2.546112c1.630249 1.630249 2.5460815 3.8413086 2.5460815 6.14682l0 0c0 4.8009644 -3.8919678 8.692902 -8.692932 8.692902l0 0c-4.8009644 0 -8.692871 -3.8919373 -8.692871 -8.692902z" fill-rule="evenodd"/><path stroke="#595959" stroke-width="3.0" stroke-linejoin="round" stroke-linecap="butt" d="m748.5696 280.43832l0 0c0 -4.8009644 3.8919067 -8.692932 8.692871 -8.692932l0 0c2.305542 0 4.5166016 0.91586304 6.1468506 2.546112c1.630249 1.630249 2.5460815 3.8413086 2.5460815 6.14682l0 0c0 4.8009644 -3.8919678 8.692902 -8.692932 8.692902l0 0c-4.8009644 0 -8.692871 -3.8919373 -8.692871 -8.692902z" fill-rule="evenodd"/><path fill="#c9daf8" d="m523.4304 355.9895l0 0c0 -4.8009644 3.8919678 -8.692902 8.692932 -8.692902l0 0c2.305542 0 4.5166016 0.9158325 6.1468506 2.5460815c1.630188 1.630249 2.5460815 3.8413086 2.5460815 6.14682l0 0c0 4.8009644 -3.8919678 8.692902 -8.692932 8.692902l0 0c-4.8009644 0 -8.692932 -3.8919373 -8.692932 -8.692902z" fill-rule="evenodd"/><path stroke="#595959" stroke-width="3.0" stroke-linejoin="round" stroke-linecap="butt" d="m523.4304 355.9895l0 0c0 -4.8009644 3.8919678 -8.692902 8.692932 -8.692902l0 0c2.305542 0 4.5166016 0.9158325 6.1468506 2.5460815c1.630188 1.630249 2.5460815 3.8413086 2.5460815 6.14682l0 0c0 4.8009644 -3.8919678 8.692902 -8.692932 8.692902l0 0c-4.8009644 0 -8.692932 -3.8919373 -8.692932 -8.692902z" fill-rule="evenodd"/><path fill="#c9daf8" d="m567.021 355.9895l0 0c0 -4.8009644 3.8919678 -8.692902 8.692932 -8.692902l0 0c2.305481 0 4.5165405 0.9158325 6.1467896 2.5460815c1.630249 1.630249 2.5460815 3.8413086 2.5460815 6.14682l0 0c0 4.8009644 -3.8919067 8.692902 -8.692871 8.692902l0 0c-4.8009644 0 -8.692932 -3.8919373 -8.692932 -8.692902z" fill-rule="evenodd"/><path stroke="#595959" stroke-width="3.0" stroke-linejoin="round" stroke-linecap="butt" d="m567.021 355.9895l0 0c0 -4.8009644 3.8919678 -8.692902 8.692932 -8.692902l0 0c2.305481 0 4.5165405 0.9158325 6.1467896 2.5460815c1.630249 1.630249 2.5460815 3.8413086 2.5460815 6.14682l0 0c0 4.8009644 -3.8919067 8.692902 -8.692871 8.692902l0 0c-4.8009644 0 -8.692932 -3.8919373 -8.692932 -8.692902z" fill-rule="evenodd"/><path fill="#c9daf8" d="m545.2257 355.9895l0 0c0 -4.8009644 3.8919678 -8.692902 8.692932 -8.692902l0 0c2.305481 0 4.5166016 0.9158325 6.1467896 2.5460815c1.630249 1.630249 2.5461426 3.8413086 2.5461426 6.14682l0 0c0 4.8009644 -3.8919678 8.692902 -8.692932 8.692902l0 0c-4.8009644 0 -8.692932 -3.8919373 -8.692932 -8.692902z" fill-rule="evenodd"/><path stroke="#595959" stroke-width="3.0" stroke-linejoin="round" stroke-linecap="butt" d="m545.2257 355.9895l0 0c0 -4.8009644 3.8919678 -8.692902 8.692932 -8.692902l0 0c2.305481 0 4.5166016 0.9158325 6.1467896 2.5460815c1.630249 1.630249 2.5461426 3.8413086 2.5461426 6.14682l0 0c0 4.8009644 -3.8919678 8.692902 -8.692932 8.692902l0 0c-4.8009644 0 -8.692932 -3.8919373 -8.692932 -8.692902z" fill-rule="evenodd"/><path fill="#c9daf8" d="m550.47766 307.69553l0 0c0 -4.8009644 3.8919678 -8.692902 8.692932 -8.692902l0 0c2.305542 0 4.5166016 0.91586304 6.1468506 2.5460815c1.630188 1.630249 2.5460815 3.841339 2.5460815 6.14682l0 0c0 4.8009644 -3.8919678 8.692932 -8.692932 8.692932l0 0c-4.8009644 0 -8.692932 -3.8919678 -8.692932 -8.692932z" fill-rule="evenodd"/><path stroke="#595959" stroke-width="3.0" stroke-linejoin="round" stroke-linecap="butt" d="m550.47766 307.69553l0 0c0 -4.8009644 3.8919678 -8.692902 8.692932 -8.692902l0 0c2.305542 0 4.5166016 0.91586304 6.1468506 2.5460815c1.630188 1.630249 2.5460815 3.841339 2.5460815 6.14682l0 0c0 4.8009644 -3.8919678 8.692932 -8.692932 8.692932l0 0c-4.8009644 0 -8.692932 -3.8919678 -8.692932 -8.692932z" fill-rule="evenodd"/><path fill="#c9daf8" d="m572.27295 282.58267l0 0c0 -4.8009644 3.8919678 -8.692902 8.692932 -8.692902l0 0c2.305481 0 4.5166016 0.91586304 6.1467896 2.5460815c1.630249 1.630249 2.5461426 3.8413086 2.5461426 6.14682l0 0c0 4.8009644 -3.8919678 8.692932 -8.692932 8.692932l0 0c-4.8009644 0 -8.692932 -3.8919678 -8.692932 -8.692932z" fill-rule="evenodd"/><path stroke="#595959" stroke-width="3.0" stroke-linejoin="round" stroke-linecap="butt" d="m572.27295 282.58267l0 0c0 -4.8009644 3.8919678 -8.692902 8.692932 -8.692902l0 0c2.305481 0 4.5166016 0.91586304 6.1467896 2.5460815c1.630249 1.630249 2.5461426 3.8413086 2.5461426 6.14682l0 0c0 4.8009644 -3.8919678 8.692932 -8.692932 8.692932l0 0c-4.8009644 0 -8.692932 -3.8919678 -8.692932 -8.692932z" fill-rule="evenodd"/><path fill="#c9daf8" d="m637.6588 240.08398l0 0c0 -4.8009644 3.8919067 -8.692902 8.692871 -8.692902l0 0c2.305542 0 4.5166016 0.9158478 6.1468506 2.5460815c1.630249 1.630249 2.5460815 3.8413239 2.5460815 6.14682l0 0c0 4.8009644 -3.8919678 8.692917 -8.692932 8.692917l0 0c-4.8009644 0 -8.692871 -3.8919525 -8.692871 -8.692917z" fill-rule="evenodd"/><path stroke="#595959" stroke-width="3.0" stroke-linejoin="round" stroke-linecap="butt" d="m637.6588 240.08398l0 0c0 -4.8009644 3.8919067 -8.692902 8.692871 -8.692902l0 0c2.305542 0 4.5166016 0.9158478 6.1468506 2.5460815c1.630249 1.630249 2.5460815 3.8413239 2.5460815 6.14682l0 0c0 4.8009644 -3.8919678 8.692917 -8.692932 8.692917l0 0c-4.8009644 0 -8.692871 -3.8919525 -8.692871 -8.692917z" fill-rule="evenodd"/><path fill="#c9daf8" d="m584.4068 262.26248l0 0c0 -4.8009644 3.8919678 -8.692932 8.692932 -8.692932l0 0c2.305481 0 4.5166016 0.91586304 6.1468506 2.546112c1.630188 1.6302185 2.5460815 3.8413086 2.5460815 6.14682l0 0c0 4.800934 -3.8919678 8.692902 -8.692932 8.692902l0 0c-4.8009644 0 -8.692932 -3.8919678 -8.692932 -8.692902z" fill-rule="evenodd"/><path stroke="#595959" stroke-width="3.0" stroke-linejoin="round" stroke-linecap="butt" d="m584.4068 262.26248l0 0c0 -4.8009644 3.8919678 -8.692932 8.692932 -8.692932l0 0c2.305481 0 4.5166016 0.91586304 6.1468506 2.546112c1.630188 1.6302185 2.5460815 3.8413086 2.5460815 6.14682l0 0c0 4.800934 -3.8919678 8.692902 -8.692932 8.692902l0 0c-4.8009644 0 -8.692932 -3.8919678 -8.692932 -8.692902z" fill-rule="evenodd"/><path fill="#c9daf8" d="m615.8635 248.89502l0 0c0 -4.8009644 3.8919678 -8.692917 8.692932 -8.692917l0 0c2.305481 0 4.5165405 0.9158478 6.1467896 2.5460968c1.630249 1.6302338 2.5460815 3.8413086 2.5460815 6.14682l0 0c0 4.8009644 -3.8919067 8.692902 -8.692871 8.692902l0 0c-4.8009644 0 -8.692932 -3.8919373 -8.692932 -8.692902z" fill-rule="evenodd"/><path stroke="#595959" stroke-width="3.0" stroke-linejoin="round" stroke-linecap="butt" d="m615.8635 248.89502l0 0c0 -4.8009644 3.8919678 -8.692917 8.692932 -8.692917l0 0c2.305481 0 4.5165405 0.9158478 6.1467896 2.5460968c1.630249 1.6302338 2.5460815 3.8413086 2.5460815 6.14682l0 0c0 4.8009644 -3.8919067 8.692902 -8.692871 8.692902l0 0c-4.8009644 0 -8.692932 -3.8919373 -8.692932 -8.692902z" fill-rule="evenodd"/><path fill="#c9daf8" d="m659.45404 332.8084l0 0c0 -4.8009644 3.8919678 -8.692932 8.692932 -8.692932l0 0c2.305542 0 4.5166016 0.91586304 6.1468506 2.546112c1.630188 1.6302185 2.5460815 3.8413086 2.5460815 6.14682l0 0c0 4.8009644 -3.8919678 8.692902 -8.692932 8.692902l0 0c-4.8009644 0 -8.692932 -3.8919373 -8.692932 -8.692902z" fill-rule="evenodd"/><path stroke="#595959" stroke-width="3.0" stroke-linejoin="round" stroke-linecap="butt" d="m659.45404 332.8084l0 0c0 -4.8009644 3.8919678 -8.692932 8.692932 -8.692932l0 0c2.305542 0 4.5166016 0.91586304 6.1468506 2.546112c1.630188 1.6302185 2.5460815 3.8413086 2.5460815 6.14682l0 0c0 4.8009644 -3.8919678 8.692902 -8.692932 8.692902l0 0c-4.8009644 0 -8.692932 -3.8919373 -8.692932 -8.692902z" fill-rule="evenodd"/><path fill="#c9daf8" d="m681.2493 324.23358l0 0c0 -4.8009644 3.8919678 -8.692902 8.692932 -8.692902l0 0c2.305481 0 4.5166016 0.91586304 6.1467896 2.546112c1.630249 1.6302185 2.5461426 3.8413086 2.5461426 6.1467896l0 0c0 4.8009644 -3.8919678 8.692932 -8.692932 8.692932l0 0c-4.8009644 0 -8.692932 -3.8919678 -8.692932 -8.692932z" fill-rule="evenodd"/><path stroke="#595959" stroke-width="3.0" stroke-linejoin="round" stroke-linecap="butt" d="m681.2493 324.23358l0 0c0 -4.8009644 3.8919678 -8.692902 8.692932 -8.692902l0 0c2.305481 0 4.5166016 0.91586304 6.1467896 2.546112c1.630249 1.6302185 2.5461426 3.8413086 2.5461426 6.1467896l0 0c0 4.8009644 -3.8919678 8.692932 -8.692932 8.692932l0 0c-4.8009644 0 -8.692932 -3.8919678 -8.692932 -8.692932z" fill-rule="evenodd"/><path fill="#c9daf8" d="m588.8163 355.9895l0 0c0 -4.8009644 3.8919678 -8.692902 8.692932 -8.692902l0 0c2.305481 0 4.5165405 0.9158325 6.1467896 2.5460815c1.630249 1.630249 2.5460815 3.8413086 2.5460815 6.14682l0 0c0 4.8009644 -3.8919678 8.692902 -8.692871 8.692902l0 0c-4.8009644 0 -8.692932 -3.8919373 -8.692932 -8.692902z" fill-rule="evenodd"/><path stroke="#595959" stroke-width="3.0" stroke-linejoin="round" stroke-linecap="butt" d="m588.8163 355.9895l0 0c0 -4.8009644 3.8919678 -8.692902 8.692932 -8.692902l0 0c2.305481 0 4.5165405 0.9158325 6.1467896 2.5460815c1.630249 1.630249 2.5460815 3.8413086 2.5460815 6.14682l0 0c0 4.8009644 -3.8919678 8.692902 -8.692871 8.692902l0 0c-4.8009644 0 -8.692932 -3.8919373 -8.692932 -8.692902z" fill-rule="evenodd"/><path fill="#c9daf8" d="m610.6116 355.9895l0 0c0 -4.8009644 3.8919067 -8.692902 8.692871 -8.692902l0 0c2.305542 0 4.5166016 0.9158325 6.1468506 2.5460815c1.630249 1.630249 2.5460815 3.8413086 2.5460815 6.14682l0 0c0 4.8009644 -3.8919678 8.692902 -8.692932 8.692902l0 0c-4.8009644 0 -8.692871 -3.8919373 -8.692871 -8.692902z" fill-rule="evenodd"/><path stroke="#595959" stroke-width="3.0" stroke-linejoin="round" stroke-linecap="butt" d="m610.6116 355.9895l0 0c0 -4.8009644 3.8919067 -8.692902 8.692871 -8.692902l0 0c2.305542 0 4.5166016 0.9158325 6.1468506 2.5460815c1.630249 1.630249 2.5460815 3.8413086 2.5460815 6.14682l0 0c0 4.8009644 -3.8919678 8.692902 -8.692932 8.692902l0 0c-4.8009644 0 -8.692871 -3.8919373 -8.692871 -8.692902z" fill-rule="evenodd"/><path fill="#c9daf8" d="m640.4068 355.9895l0 0c0 -4.8009644 3.8919678 -8.692902 8.692932 -8.692902l0 0c2.305481 0 4.5166016 0.9158325 6.1468506 2.5460815c1.630188 1.630249 2.5460815 3.8413086 2.5460815 6.14682l0 0c0 4.8009644 -3.8919678 8.692902 -8.692932 8.692902l0 0c-4.8009644 0 -8.692932 -3.8919373 -8.692932 -8.692902z" fill-rule="evenodd"/><path stroke="#595959" stroke-width="3.0" stroke-linejoin="round" stroke-linecap="butt" d="m640.4068 355.9895l0 0c0 -4.8009644 3.8919678 -8.692902 8.692932 -8.692902l0 0c2.305481 0 4.5166016 0.9158325 6.1468506 2.5460815c1.630188 1.630249 2.5460815 3.8413086 2.5460815 6.14682l0 0c0 4.8009644 -3.8919678 8.692902 -8.692932 8.692902l0 0c-4.8009644 0 -8.692932 -3.8919373 -8.692932 -8.692902z" fill-rule="evenodd"/><path fill="#000000" fill-opacity="0.0" d="m409.18503 239.45932c27.860596 0 37.603058 9.267715 55.72116 18.53543c18.118134 9.267731 44.611877 18.53543 89.223755 18.53543" fill-rule="evenodd"/><path stroke="#595959" stroke-width="3.0" stroke-linejoin="round" stroke-linecap="butt" d="m409.18503 239.45932c27.860565 0 37.603058 9.267715 55.72119 18.53543c9.0590515 4.63385 20.212006 9.267731 34.676697 12.743103c7.2323303 1.7377014 15.292572 3.185791 24.333038 4.1994324c4.5202026 0.50683594 9.285461 0.9050598 14.314758 1.1765747c1.2573242 0.067871094 2.531189 0.12783813 3.8218384 0.17959595l1.7974854 0.06591797" fill-rule="evenodd"/><path fill="#595959" stroke="#595959" stroke-width="3.0" stroke-linecap="butt" d="m543.8501 276.35938l-3.4293823 3.3172302l9.324097 -3.2192993l-9.211975 -3.5272827z" fill-rule="evenodd"/></g></svg>